<svg width="460" height="83" viewBox="0 0 460 83" fill="none" xmlns="http://www.w3.org/2000/svg">
<path d="M447.628 64.912C445.338 64.912 443.405 64.688 441.828 64.2399C440.252 63.7753 438.974 63.1198 437.995 62.2734C437.032 61.4271 436.335 60.3982 435.904 59.1867C435.472 57.9753 435.257 56.6062 435.257 55.0794C435.257 53.3203 435.497 51.8185 435.979 50.5739C436.476 49.3126 437.232 48.2754 438.244 47.4623C439.273 46.6491 440.559 46.0517 442.102 45.67C443.662 45.2883 445.504 45.0975 447.628 45.0975C449.753 45.0975 451.586 45.2883 453.13 45.67C454.69 46.0517 455.976 46.6491 456.988 47.4623C458.017 48.2754 458.772 49.3126 459.253 50.5739C459.751 51.8185 460 53.3203 460 55.0794C460 56.6062 459.784 57.9753 459.353 59.1867C458.921 60.3982 458.216 61.4271 457.237 62.2734C456.274 63.1198 455.005 63.7753 453.428 64.2399C451.852 64.688 449.918 64.912 447.628 64.912ZM447.628 63.4434C449.139 63.4434 450.441 63.3355 451.537 63.1198C452.632 62.8874 453.561 62.5721 454.324 62.1738C455.104 61.7756 455.727 61.3109 456.191 60.7798C456.673 60.2488 457.046 59.6763 457.312 59.0623C457.594 58.4316 457.776 57.7844 457.859 57.1206C457.959 56.4402 458.009 55.7598 458.009 55.0794C458.009 53.5361 457.809 52.2251 457.411 51.1464C457.013 50.0677 456.391 49.1882 455.544 48.5078C454.698 47.8274 453.619 47.3378 452.308 47.0391C450.997 46.7238 449.437 46.5661 447.628 46.5661C445.803 46.5661 444.235 46.7238 442.924 47.0391C441.629 47.3378 440.559 47.8274 439.712 48.5078C438.866 49.1882 438.244 50.0677 437.846 51.1464C437.447 52.2251 437.248 53.5361 437.248 55.0794C437.248 55.7598 437.29 56.4402 437.373 57.1206C437.472 57.7844 437.655 58.4316 437.92 59.0623C438.202 59.6763 438.576 60.2488 439.04 60.7798C439.522 61.3109 440.144 61.7756 440.907 62.1738C441.687 62.5721 442.625 62.8874 443.72 63.1198C444.815 63.3355 446.118 63.4434 447.628 63.4434Z" fill="white"/>
<path d="M417.683 71.5086C419.392 71.5086 420.819 71.3177 421.964 70.9361C423.109 70.571 424.022 69.957 424.702 69.094C425.399 68.2477 425.889 67.1109 426.171 65.6837C426.47 64.2731 426.619 62.5223 426.619 60.4314C426.436 61.1118 426.138 61.6926 425.723 62.1738C425.308 62.6551 424.81 63.0617 424.229 63.3936C423.665 63.7255 423.043 63.991 422.362 64.1902C421.699 64.3893 421.018 64.5469 420.321 64.6631C419.624 64.7627 418.935 64.8291 418.255 64.8623C417.591 64.8954 416.977 64.912 416.413 64.912C414.621 64.912 413.111 64.7544 411.883 64.4391C410.654 64.1072 409.659 63.5595 408.895 62.7962C408.132 62.0162 407.576 60.9956 407.228 59.7344C406.896 58.4731 406.73 56.9049 406.73 55.0297V47.3876C406.73 47.1719 406.738 46.9561 406.755 46.7404C406.771 46.5247 406.813 46.3338 406.879 46.1679C406.945 46.0019 407.037 45.8692 407.153 45.7696C407.286 45.6534 407.468 45.5953 407.701 45.5953C407.949 45.5953 408.14 45.6534 408.273 45.7696C408.406 45.8692 408.505 46.0019 408.572 46.1679C408.638 46.3338 408.68 46.5247 408.696 46.7404C408.713 46.9561 408.721 47.1719 408.721 47.3876V55.0297C408.721 56.656 408.821 58.0085 409.02 59.0872C409.236 60.1658 409.626 61.0288 410.19 61.676C410.754 62.3232 411.534 62.7796 412.53 63.0451C413.542 63.3106 414.836 63.4434 416.413 63.4434C417.359 63.4434 418.371 63.377 419.45 63.2442C420.529 63.1115 421.549 62.8708 422.512 62.5223C423.491 62.1738 424.345 61.6926 425.076 61.0786C425.822 60.4646 426.337 59.668 426.619 58.6889V47.3876C426.619 47.1719 426.627 46.9561 426.644 46.7404C426.677 46.5247 426.727 46.3338 426.793 46.1679C426.86 46.0019 426.951 45.8692 427.067 45.7696C427.2 45.6534 427.366 45.5953 427.565 45.5953C427.814 45.5953 428.005 45.6534 428.137 45.7696C428.27 45.8692 428.37 46.0019 428.436 46.1679C428.519 46.3338 428.569 46.5247 428.585 46.7404C428.602 46.9561 428.61 47.1719 428.61 47.3876V59.6099C428.61 62.1655 428.403 64.298 427.988 66.0073C427.59 67.7166 426.951 69.0857 426.071 70.1146C425.192 71.1601 424.063 71.8986 422.686 72.3301C421.309 72.7615 419.641 72.9773 417.683 72.9773C416.289 72.9773 415.11 72.9026 414.148 72.7532C413.202 72.6039 412.397 72.413 411.733 72.1807C411.086 71.965 410.547 71.716 410.115 71.4339C409.684 71.1518 409.31 70.8863 408.995 70.6374C408.862 70.5046 408.796 70.3469 408.796 70.1644C408.796 69.9321 408.854 69.7329 408.97 69.567C409.103 69.4176 409.302 69.3429 409.567 69.3429C409.7 69.3429 409.841 69.3927 409.991 69.4923C410.306 69.7246 410.671 69.957 411.086 70.1893C411.517 70.4382 412.032 70.6539 412.629 70.8365C413.243 71.0356 413.957 71.1933 414.77 71.3095C415.6 71.4422 416.571 71.5086 417.683 71.5086Z" fill="white"/>
<path d="M378.726 59.0871C378.726 59.8837 378.925 60.5558 379.323 61.1035C379.738 61.6511 380.31 62.0992 381.041 62.4477C381.771 62.7962 382.634 63.0534 383.629 63.2193C384.642 63.3687 385.745 63.4434 386.94 63.4434C388.4 63.4434 389.695 63.3438 390.823 63.1446C391.952 62.9289 392.939 62.6634 393.786 62.3481C394.632 62.0328 395.346 61.6926 395.926 61.3275C396.507 60.9458 396.988 60.5807 397.37 60.2322V55.2288C395.711 54.9965 393.993 54.7807 392.217 54.5816C390.442 54.3658 388.649 54.258 386.841 54.258C385.563 54.258 384.418 54.3326 383.405 54.482C382.41 54.6314 381.563 54.8886 380.866 55.2537C380.169 55.6188 379.638 56.1166 379.273 56.7472C378.908 57.3613 378.726 58.1412 378.726 59.0871ZM389.305 46.5661C387.712 46.5661 386.351 46.6076 385.223 46.6906C384.094 46.7736 383.123 46.8814 382.31 47.0142C381.514 47.147 380.841 47.288 380.294 47.4374C379.746 47.5867 379.265 47.7361 378.85 47.8855C378.651 47.8855 378.468 47.7859 378.302 47.5867C378.136 47.3876 378.053 47.1719 378.053 46.9395C378.053 46.7238 378.153 46.5661 378.352 46.4666C378.485 46.4002 378.792 46.2923 379.273 46.143C379.771 45.9936 380.46 45.8443 381.339 45.6949C382.235 45.5289 383.339 45.3879 384.65 45.2717C385.978 45.1556 387.538 45.0975 389.33 45.0975C390.176 45.0975 391.014 45.1556 391.844 45.2717C392.674 45.3713 393.454 45.5621 394.184 45.8443C394.931 46.1264 395.619 46.5164 396.25 47.0142C396.897 47.5121 397.445 48.1593 397.893 48.9558C398.358 49.7358 398.723 50.69 398.988 51.8185C399.254 52.9304 399.386 54.2414 399.386 55.7515V62.9206C399.386 63.1198 399.378 63.3189 399.362 63.518C399.345 63.7172 399.295 63.908 399.212 64.0906C399.146 64.2565 399.046 64.3976 398.913 64.5137C398.781 64.6133 398.598 64.6631 398.366 64.6631C397.984 64.6631 397.719 64.4889 397.569 64.1404C397.437 63.7919 397.37 63.3521 397.37 62.821V61.1035C397.038 61.5183 396.607 61.9498 396.076 62.3979C395.545 62.8459 394.873 63.2608 394.059 63.6425C393.246 64.0076 392.275 64.3146 391.147 64.5635C390.019 64.7959 388.683 64.912 387.139 64.912C385.695 64.912 384.335 64.8042 383.057 64.5884C381.796 64.3727 380.692 64.0325 379.746 63.5678C378.817 63.1032 378.078 62.5057 377.531 61.7756C377 61.0288 376.734 60.1326 376.734 59.0871C376.734 57.8757 376.983 56.8717 377.481 56.0751C377.995 55.262 378.701 54.6148 379.597 54.1335C380.493 53.6357 381.538 53.2872 382.733 53.088C383.945 52.8889 385.247 52.7893 386.641 52.7893C387.687 52.7893 388.732 52.8308 389.778 52.9138C390.84 52.9801 391.844 53.088 392.79 53.2374C393.736 53.3701 394.599 53.5444 395.379 53.7601C396.175 53.9593 396.839 54.1999 397.37 54.482C397.37 52.7893 397.146 51.4285 396.698 50.3996C396.25 49.3707 395.653 48.5741 394.906 48.0099C394.159 47.4291 393.296 47.0474 392.317 46.8649C391.354 46.6657 390.35 46.5661 389.305 46.5661Z" fill="white"/>
<path d="M359.284 45.0975C360.778 45.0975 362.188 45.2552 363.516 45.5705C364.86 45.8692 366.03 46.3919 367.026 47.1387C368.038 47.8855 368.835 48.8812 369.416 50.1258C370.013 51.3705 370.312 52.9304 370.312 54.8056C370.312 56.6643 370.063 58.2408 369.565 59.5352C369.084 60.8131 368.37 61.8503 367.424 62.6468C366.495 63.4434 365.342 64.0242 363.964 64.3893C362.603 64.7378 361.043 64.9121 359.284 64.9121C357.94 64.9121 356.704 64.8291 355.575 64.6631C354.447 64.4972 353.418 64.2897 352.489 64.0408C351.576 63.7753 350.754 63.4849 350.024 63.1696C349.294 62.8543 348.647 62.5473 348.083 62.2485V62.846C348.083 63.0949 348.074 63.3272 348.058 63.543C348.041 63.7587 348 63.9495 347.933 64.1155C347.867 64.2814 347.767 64.4142 347.635 64.5138C347.502 64.6133 347.311 64.6631 347.062 64.6631C346.813 64.6631 346.622 64.6133 346.489 64.5138C346.373 64.4142 346.282 64.2814 346.216 64.1155C346.149 63.9495 346.108 63.7587 346.091 63.543C346.091 63.3272 346.091 63.0949 346.091 62.846V38.1524C346.091 37.6214 346.199 37.2895 346.415 37.1567C346.647 37.0074 346.888 36.9327 347.137 36.9327C347.386 36.9327 347.601 37.0074 347.784 37.1567C347.983 37.2895 348.083 37.6214 348.083 38.1524V50.0511C348.265 49.3541 348.589 48.7484 349.053 48.234C349.518 47.7029 350.066 47.2549 350.696 46.8898C351.344 46.5247 352.049 46.226 352.812 45.9936C353.576 45.7613 354.339 45.5788 355.102 45.446C355.882 45.3132 356.629 45.222 357.343 45.1722C358.073 45.1224 358.72 45.0975 359.284 45.0975ZM359.284 46.5662C358.289 46.5828 357.202 46.6657 356.023 46.8151C354.845 46.9479 353.717 47.1968 352.638 47.5619C351.559 47.927 350.605 48.4331 349.775 49.0803C348.946 49.7275 348.381 50.5739 348.083 51.6194V61.1782C348.796 61.4437 349.56 61.7175 350.373 61.9996C351.202 62.2651 352.082 62.5058 353.011 62.7215C353.941 62.9372 354.928 63.1115 355.974 63.2442C357.019 63.377 358.123 63.4434 359.284 63.4434C360.877 63.4434 362.238 63.2774 363.367 62.9455C364.512 62.6136 365.449 62.0992 366.18 61.4022C366.926 60.6886 367.466 59.7925 367.798 58.7138C368.146 57.6185 368.32 56.3158 368.32 54.8056C368.32 53.2457 368.08 51.9347 367.598 50.8726C367.134 49.8105 366.495 48.9642 365.682 48.3335C364.869 47.7029 363.906 47.2549 362.794 46.9893C361.699 46.7072 360.529 46.5662 359.284 46.5662Z" fill="white"/>
<path d="M44.3683 8.90356L12.8547 34.1638C88.8375 29.851 9.58661 78.0097 2 80.0634" stroke="#EDF7FF" stroke-width="4" stroke-linecap="round"/>
<path d="M326.7 64.912C324.41 64.912 322.476 64.688 320.9 64.2399C319.323 63.7753 318.045 63.1198 317.066 62.2734C316.104 61.4271 315.407 60.3982 314.975 59.1867C314.544 57.9753 314.328 56.6062 314.328 55.0794C314.328 53.3203 314.569 51.8185 315.05 50.5739C315.548 49.3126 316.303 48.2754 317.315 47.4623C318.344 46.6491 319.63 46.0517 321.174 45.67C322.734 45.2883 324.576 45.0975 326.7 45.0975C328.824 45.0975 330.658 45.2883 332.201 45.67C333.761 46.0517 335.047 46.6491 336.059 47.4623C337.088 48.2754 337.843 49.3126 338.325 50.5739C338.823 51.8185 339.071 53.3203 339.071 55.0794C339.071 56.6062 338.856 57.9753 338.424 59.1867C337.993 60.3982 337.287 61.4271 336.308 62.2734C335.346 63.1198 334.076 63.7753 332.5 64.2399C330.923 64.688 328.99 64.912 326.7 64.912ZM326.7 63.4434C328.21 63.4434 329.513 63.3355 330.608 63.1198C331.703 62.8874 332.633 62.5721 333.396 62.1738C334.176 61.7756 334.798 61.3109 335.263 60.7798C335.744 60.2488 336.117 59.6763 336.383 59.0623C336.665 58.4316 336.848 57.7844 336.931 57.1206C337.03 56.4402 337.08 55.7598 337.08 55.0794C337.08 53.5361 336.881 52.2251 336.483 51.1464C336.084 50.0677 335.462 49.1882 334.616 48.5078C333.769 47.8274 332.691 47.3378 331.38 47.0391C330.069 46.7238 328.509 46.5661 326.7 46.5661C324.874 46.5661 323.306 46.7238 321.995 47.0391C320.701 47.3378 319.63 47.8274 318.784 48.5078C317.938 49.1882 317.315 50.0677 316.917 51.1464C316.519 52.2251 316.32 53.5361 316.32 55.0794C316.32 55.7598 316.361 56.4402 316.444 57.1206C316.544 57.7844 316.726 58.4316 316.992 59.0623C317.274 59.6763 317.647 60.2488 318.112 60.7798C318.593 61.3109 319.215 61.7756 319.979 62.1738C320.759 62.5721 321.696 62.8874 322.792 63.1198C323.887 63.3355 325.19 63.4434 326.7 63.4434Z" fill="white"/>
<path d="M250.354 62.8708C250.354 63.0866 250.337 63.3023 250.304 63.518C250.271 63.7338 250.213 63.9246 250.13 64.0906C250.064 64.2565 249.964 64.3976 249.831 64.5137C249.699 64.6133 249.533 64.6631 249.333 64.6631C249.085 64.6631 248.894 64.6133 248.761 64.5137C248.645 64.3976 248.554 64.2565 248.487 64.0906C248.421 63.9246 248.379 63.7338 248.363 63.518C248.363 63.3023 248.363 63.0866 248.363 62.8708V54.258C248.363 52.9636 248.263 51.8351 248.064 50.8726C247.881 49.9101 247.508 49.1135 246.944 48.4829C246.396 47.8357 245.624 47.3544 244.629 47.0391C243.65 46.7238 242.364 46.5661 240.77 46.5661C239.791 46.5661 238.754 46.6491 237.659 46.8151C236.564 46.9644 235.518 47.2382 234.522 47.6365C233.527 48.0182 232.647 48.5327 231.884 49.1799C231.12 49.8271 230.589 50.6402 230.291 51.6193V62.8708C230.291 63.0866 230.282 63.3023 230.266 63.518C230.249 63.7338 230.208 63.9246 230.141 64.0906C230.075 64.2565 229.975 64.3976 229.843 64.5137C229.726 64.6133 229.569 64.6631 229.37 64.6631C229.137 64.6631 228.946 64.6133 228.797 64.5137C228.664 64.3976 228.556 64.2565 228.473 64.0906C228.407 63.9246 228.357 63.7338 228.324 63.518C228.307 63.3023 228.299 63.0866 228.299 62.8708V46.7404C228.299 46.4583 228.357 46.201 228.473 45.9687C228.59 45.7198 228.88 45.5953 229.345 45.5953C229.76 45.5953 230.017 45.7115 230.116 45.9438C230.233 46.1596 230.291 46.4251 230.291 46.7404V49.8769C230.755 48.8148 231.402 47.9684 232.232 47.3378C233.062 46.6906 233.966 46.2093 234.946 45.894C235.941 45.5621 236.945 45.3464 237.958 45.2468C238.986 45.1473 239.924 45.0975 240.77 45.0975C242.563 45.0975 244.065 45.2551 245.276 45.5704C246.504 45.8691 247.491 46.3753 248.238 47.0889C249.002 47.8025 249.541 48.7484 249.856 49.9266C250.188 51.0883 250.354 52.5321 250.354 54.258V62.8708Z" fill="white"/>
<path d="M199.996 59.0871C199.996 59.8837 200.195 60.5558 200.594 61.1035C201.008 61.6511 201.581 62.0992 202.311 62.4477C203.041 62.7962 203.904 63.0534 204.9 63.2193C205.912 63.3687 207.016 63.4434 208.211 63.4434C209.671 63.4434 210.966 63.3438 212.094 63.1446C213.222 62.9289 214.21 62.6634 215.056 62.3481C215.903 62.0328 216.616 61.6926 217.197 61.3275C217.778 60.9458 218.259 60.5807 218.641 60.2322V55.2288C216.981 54.9965 215.264 54.7807 213.488 54.5816C211.712 54.3658 209.92 54.258 208.111 54.258C206.833 54.258 205.688 54.3326 204.676 54.482C203.68 54.6314 202.834 54.8886 202.137 55.2537C201.44 55.6188 200.909 56.1166 200.544 56.7472C200.179 57.3613 199.996 58.1412 199.996 59.0871ZM210.576 46.5661C208.982 46.5661 207.622 46.6076 206.493 46.6906C205.365 46.7736 204.394 46.8814 203.581 47.0142C202.784 47.147 202.112 47.288 201.564 47.4374C201.017 47.5867 200.536 47.7361 200.121 47.8855C199.921 47.8855 199.739 47.7859 199.573 47.5867C199.407 47.3876 199.324 47.1719 199.324 46.9395C199.324 46.7238 199.424 46.5661 199.623 46.4666C199.756 46.4002 200.063 46.2923 200.544 46.143C201.042 45.9936 201.73 45.8443 202.61 45.6949C203.506 45.5289 204.61 45.3879 205.921 45.2717C207.248 45.1556 208.808 45.0975 210.6 45.0975C211.447 45.0975 212.285 45.1556 213.115 45.2717C213.944 45.3713 214.724 45.5621 215.455 45.8443C216.201 46.1264 216.89 46.5164 217.521 47.0142C218.168 47.5121 218.715 48.1593 219.164 48.9558C219.628 49.7358 219.993 50.69 220.259 51.8185C220.524 52.9304 220.657 54.2414 220.657 55.7515V62.9206C220.657 63.1198 220.649 63.3189 220.632 63.518C220.616 63.7172 220.566 63.908 220.483 64.0906C220.416 64.2565 220.317 64.3976 220.184 64.5137C220.051 64.6133 219.869 64.6631 219.636 64.6631C219.255 64.6631 218.989 64.4889 218.84 64.1404C218.707 63.7919 218.641 63.3521 218.641 62.821V61.1035C218.309 61.5183 217.877 61.9498 217.346 62.3979C216.815 62.8459 216.143 63.2608 215.33 63.6425C214.517 64.0076 213.546 64.3146 212.418 64.5635C211.289 64.7959 209.953 64.912 208.41 64.912C206.966 64.912 205.605 64.8042 204.327 64.5884C203.066 64.3727 201.963 64.0325 201.017 63.5678C200.087 63.1032 199.349 62.5057 198.801 61.7756C198.27 61.0288 198.005 60.1326 198.005 59.0871C198.005 57.8757 198.254 56.8717 198.752 56.0751C199.266 55.262 199.971 54.6148 200.867 54.1335C201.764 53.6357 202.809 53.2872 204.004 53.088C205.215 52.8889 206.518 52.7893 207.912 52.7893C208.958 52.7893 210.003 52.8308 211.049 52.9138C212.111 52.9801 213.115 53.088 214.061 53.2374C215.006 53.3701 215.869 53.5444 216.649 53.7601C217.446 53.9593 218.11 54.1999 218.641 54.482C218.641 52.7893 218.417 51.4285 217.969 50.3996C217.521 49.3707 216.923 48.5741 216.176 48.0099C215.43 47.4291 214.567 47.0474 213.588 46.8649C212.625 46.6657 211.621 46.5661 210.576 46.5661Z" fill="white"/>
<path d="M190.338 63.0949C190.338 63.3106 190.33 63.5181 190.313 63.7172C190.296 63.8997 190.255 64.0657 190.188 64.215C190.139 64.3478 190.047 64.4557 189.915 64.5387C189.782 64.6216 189.591 64.6631 189.342 64.6631C188.877 64.6631 188.595 64.5221 188.496 64.2399C188.396 63.9578 188.346 63.5761 188.346 63.0949V47.1138C188.346 46.6989 188.405 46.3421 188.521 46.0434C188.637 45.7447 188.927 45.5953 189.392 45.5953C189.807 45.5953 190.064 45.7447 190.164 46.0434C190.28 46.3421 190.338 46.6823 190.338 47.064V63.0949ZM188.023 39.9696C188.023 39.5879 188.147 39.2726 188.396 39.0237C188.645 38.7582 188.96 38.6254 189.342 38.6254C189.724 38.6254 190.047 38.7582 190.313 39.0237C190.578 39.2726 190.711 39.5879 190.711 39.9696C190.711 40.3513 190.578 40.6583 190.313 40.8906C190.047 41.123 189.724 41.2391 189.342 41.2391C188.96 41.2391 188.645 41.123 188.396 40.8906C188.147 40.6583 188.023 40.3513 188.023 39.9696Z" fill="white"/>
<path d="M181.152 45.9687C181.401 45.9687 181.584 46.0351 181.7 46.1679C181.833 46.284 181.899 46.4168 181.899 46.5662C181.899 46.7155 181.833 46.8566 181.7 46.9893C181.584 47.1055 181.401 47.1636 181.152 47.1636H172.888V57.7181C172.888 58.9295 173.013 59.9086 173.262 60.6554C173.51 61.4022 173.842 61.983 174.257 62.3979C174.689 62.8128 175.187 63.0949 175.751 63.2442C176.332 63.377 176.946 63.4434 177.593 63.4434C178.389 63.4434 179.169 63.3023 179.933 63.0202C180.696 62.7381 181.576 62.3315 182.571 61.8005C182.771 61.7009 182.961 61.6511 183.144 61.6511C183.36 61.6511 183.526 61.7175 183.642 61.8502C183.775 61.9664 183.841 62.1158 183.841 62.2983C183.841 62.6302 183.658 62.8957 183.293 63.0949C182.596 63.4766 181.974 63.7836 181.426 64.0159C180.895 64.2482 180.397 64.4308 179.933 64.5635C179.485 64.6963 179.045 64.7876 178.613 64.8374C178.182 64.8872 177.726 64.912 177.244 64.912C176.348 64.912 175.51 64.7876 174.73 64.5387C173.967 64.2897 173.295 63.8914 172.714 63.3438C172.15 62.7796 171.702 62.0411 171.37 61.1284C171.054 60.199 170.897 59.0623 170.897 57.7181V47.1636H168.706C168.474 47.1636 168.3 47.1055 168.183 46.9893C168.067 46.8566 168.009 46.7155 168.009 46.5662C168.009 46.4168 168.067 46.284 168.183 46.1679C168.3 46.0351 168.474 45.9687 168.706 45.9687H170.897V39.7705C170.897 39.2394 171.005 38.9075 171.22 38.7748C171.436 38.6254 171.66 38.5507 171.892 38.5507C172.175 38.5507 172.407 38.6254 172.589 38.7748C172.789 38.9075 172.888 39.2394 172.888 39.7705V45.9687H181.152Z" fill="white"/>
<path d="M161.562 59.4605C161.562 58.581 161.247 57.9006 160.616 57.4193C160.002 56.9381 159.181 56.5896 158.152 56.3738C157.139 56.1415 155.978 56.0005 154.667 55.9507C153.372 55.8843 152.045 55.8345 150.684 55.8013C149.34 55.7515 148.012 55.6769 146.701 55.5773C145.407 55.4611 144.245 55.2371 143.216 54.9052C142.204 54.5567 141.382 54.0671 140.752 53.4365C140.138 52.7893 139.831 51.9098 139.831 50.7979C139.831 49.6528 140.138 48.7152 140.752 47.985C141.382 47.2548 142.204 46.674 143.216 46.2425C144.228 45.8111 145.373 45.5124 146.651 45.3464C147.929 45.1804 149.232 45.0975 150.559 45.0975C152.733 45.0975 154.758 45.28 156.633 45.6451C158.508 45.9936 160.251 46.591 161.861 47.4374C162.027 47.5204 162.134 47.6282 162.184 47.761C162.251 47.8772 162.292 48.0016 162.309 48.1344C162.309 48.3501 162.242 48.541 162.11 48.7069C161.977 48.8729 161.827 48.9558 161.661 48.9558C161.562 48.9558 161.496 48.9392 161.462 48.906C160.052 48.1925 158.45 47.6282 156.658 47.2133C154.882 46.7819 152.883 46.5661 150.659 46.5661C149.53 46.5661 148.435 46.6408 147.373 46.7902C146.311 46.9229 145.365 47.1553 144.535 47.4872C143.722 47.8025 143.067 48.2339 142.569 48.7816C142.071 49.3126 141.822 49.9847 141.822 50.7979C141.822 51.6276 142.129 52.2666 142.743 52.7146C143.374 53.1627 144.195 53.4946 145.207 53.7103C146.236 53.9095 147.398 54.0339 148.692 54.0837C150.003 54.1335 151.331 54.1833 152.675 54.2331C154.036 54.2829 155.364 54.3741 156.658 54.5069C157.969 54.6231 159.131 54.8637 160.143 55.2288C161.172 55.5773 161.993 56.0917 162.607 56.7721C163.238 57.4359 163.553 58.3321 163.553 59.4605C163.553 60.4728 163.238 61.3275 162.607 62.0245C161.977 62.7215 161.139 63.2857 160.093 63.7172C159.048 64.1321 157.836 64.4391 156.459 64.6382C155.098 64.8208 153.688 64.912 152.227 64.912C151.331 64.912 150.36 64.8871 149.315 64.8374C148.286 64.8042 147.249 64.7129 146.203 64.5635C145.174 64.3976 144.179 64.1569 143.216 63.8416C142.27 63.5097 141.44 63.0617 140.727 62.4974C140.494 62.3149 140.378 62.0992 140.378 61.8502C140.378 61.6345 140.436 61.4519 140.553 61.3026C140.685 61.1366 140.843 61.0537 141.025 61.0537C141.158 61.0537 141.258 61.0869 141.324 61.1532C142.021 61.6345 142.768 62.0245 143.565 62.3232C144.378 62.6219 145.232 62.8542 146.128 63.0202C147.025 63.1861 147.962 63.3023 148.941 63.3687C149.92 63.4185 150.933 63.4434 151.978 63.4434C153.223 63.4434 154.418 63.3853 155.563 63.2691C156.724 63.1364 157.745 62.9206 158.625 62.6219C159.521 62.3066 160.234 61.9 160.765 61.4022C161.296 60.8877 161.562 60.2405 161.562 59.4605Z" fill="white"/>
<path d="M112.523 59.0871C112.523 59.8837 112.723 60.5558 113.121 61.1035C113.536 61.6511 114.108 62.0992 114.838 62.4477C115.569 62.7962 116.432 63.0534 117.427 63.2193C118.44 63.3687 119.543 63.4434 120.738 63.4434C122.198 63.4434 123.493 63.3438 124.621 63.1446C125.75 62.9289 126.737 62.6634 127.583 62.3481C128.43 62.0328 129.143 61.6926 129.724 61.3275C130.305 60.9458 130.786 60.5807 131.168 60.2322V55.2288C129.508 54.9965 127.791 54.7807 126.015 54.5816C124.24 54.3658 122.447 54.258 120.638 54.258C119.361 54.258 118.216 54.3326 117.203 54.482C116.208 54.6314 115.361 54.8886 114.664 55.2537C113.967 55.6188 113.436 56.1166 113.071 56.7472C112.706 57.3613 112.523 58.1412 112.523 59.0871ZM123.103 46.5661C121.51 46.5661 120.149 46.6076 119.02 46.6906C117.892 46.7736 116.921 46.8814 116.108 47.0142C115.311 47.147 114.639 47.288 114.092 47.4374C113.544 47.5867 113.063 47.7361 112.648 47.8855C112.449 47.8855 112.266 47.7859 112.1 47.5867C111.934 47.3876 111.851 47.1719 111.851 46.9395C111.851 46.7238 111.951 46.5661 112.15 46.4666C112.283 46.4002 112.59 46.2923 113.071 46.143C113.569 45.9936 114.258 45.8443 115.137 45.6949C116.033 45.5289 117.137 45.3879 118.448 45.2717C119.775 45.1556 121.335 45.0975 123.128 45.0975C123.974 45.0975 124.812 45.1556 125.642 45.2717C126.472 45.3713 127.252 45.5621 127.982 45.8443C128.729 46.1264 129.417 46.5164 130.048 47.0142C130.695 47.5121 131.243 48.1593 131.691 48.9558C132.155 49.7358 132.521 50.69 132.786 51.8185C133.052 52.9304 133.184 54.2414 133.184 55.7515V62.9206C133.184 63.1198 133.176 63.3189 133.159 63.518C133.143 63.7172 133.093 63.908 133.01 64.0906C132.944 64.2565 132.844 64.3976 132.711 64.5137C132.579 64.6133 132.396 64.6631 132.164 64.6631C131.782 64.6631 131.516 64.4889 131.367 64.1404C131.234 63.7919 131.168 63.3521 131.168 62.821V61.1035C130.836 61.5183 130.405 61.9498 129.874 62.3979C129.343 62.8459 128.67 63.2608 127.857 63.6425C127.044 64.0076 126.073 64.3146 124.945 64.5635C123.816 64.7959 122.48 64.912 120.937 64.912C119.493 64.912 118.133 64.8042 116.855 64.5884C115.593 64.3727 114.49 64.0325 113.544 63.5678C112.615 63.1032 111.876 62.5057 111.329 61.7756C110.798 61.0288 110.532 60.1326 110.532 59.0871C110.532 57.8757 110.781 56.8717 111.279 56.0751C111.793 55.262 112.499 54.6148 113.395 54.1335C114.291 53.6357 115.336 53.2872 116.531 53.088C117.743 52.8889 119.045 52.7893 120.439 52.7893C121.485 52.7893 122.53 52.8308 123.576 52.9138C124.638 52.9801 125.642 53.088 126.588 53.2374C127.534 53.3701 128.397 53.5444 129.177 53.7601C129.973 53.9593 130.637 54.1999 131.168 54.482C131.168 52.7893 130.944 51.4285 130.496 50.3996C130.048 49.3707 129.45 48.5741 128.704 48.0099C127.957 47.4291 127.094 47.0474 126.115 46.8649C125.152 46.6657 124.148 46.5661 123.103 46.5661Z" fill="white"/>
<path d="M93.0822 45.0975C94.5758 45.0975 95.9864 45.2552 97.314 45.5705C98.6582 45.8692 99.8281 46.3919 100.824 47.1387C101.836 47.8855 102.633 48.8812 103.214 50.1258C103.811 51.3705 104.11 52.9304 104.11 54.8056C104.11 56.6643 103.861 58.2408 103.363 59.5352C102.882 60.8131 102.168 61.8503 101.222 62.6468C100.293 63.4434 99.1394 64.0242 97.762 64.3893C96.4012 64.7378 94.8413 64.9121 93.0822 64.9121C91.738 64.9121 90.5017 64.8291 89.3732 64.6631C88.2447 64.4972 87.2158 64.2897 86.2865 64.0408C85.3738 63.7753 84.5523 63.4849 83.8221 63.1696C83.092 62.8543 82.4447 62.5473 81.8805 62.2485V62.846C81.8805 63.0949 81.8722 63.3272 81.8556 63.543C81.839 63.7587 81.7975 63.9495 81.7312 64.1155C81.6648 64.2814 81.5652 64.4142 81.4324 64.5138C81.2997 64.6133 81.1088 64.6631 80.8599 64.6631C80.611 64.6631 80.4201 64.6133 80.2874 64.5138C80.1712 64.4142 80.0799 64.2814 80.0136 64.1155C79.9472 63.9495 79.9057 63.7587 79.8891 63.543C79.8891 63.3272 79.8891 63.0949 79.8891 62.846V38.1524C79.8891 37.6214 79.997 37.2895 80.2127 37.1567C80.445 37.0074 80.6857 36.9327 80.9346 36.9327C81.1835 36.9327 81.3993 37.0074 81.5818 37.1567C81.7809 37.2895 81.8805 37.6214 81.8805 38.1524V50.0511C82.0631 49.3541 82.3867 48.7484 82.8513 48.234C83.316 47.7029 83.8636 47.2549 84.4942 46.8898C85.1414 46.5247 85.8467 46.226 86.6101 45.9936C87.3735 45.7613 88.1369 45.5788 88.9002 45.446C89.6802 45.3132 90.427 45.222 91.1406 45.1722C91.8708 45.1224 92.518 45.0975 93.0822 45.0975ZM93.0822 46.5662C92.0865 46.5828 90.9995 46.6657 89.8213 46.8151C88.643 46.9479 87.5145 47.1968 86.4359 47.5619C85.3572 47.927 84.403 48.4331 83.5732 49.0803C82.7435 49.7275 82.1792 50.5739 81.8805 51.6194V61.1782C82.5941 61.4437 83.3575 61.7175 84.1706 61.9996C85.0004 62.2651 85.8799 62.5058 86.8093 62.7215C87.7386 62.9372 88.726 63.1115 89.7715 63.2442C90.817 63.377 91.9206 63.4434 93.0822 63.4434C94.6753 63.4434 96.0361 63.2774 97.1646 62.9455C98.3097 62.6136 99.2473 62.0992 99.9775 61.4022C100.724 60.6886 101.264 59.7925 101.595 58.7138C101.944 57.6185 102.118 56.3158 102.118 54.8056C102.118 53.2457 101.878 51.9347 101.396 50.8726C100.932 49.8105 100.293 48.9642 99.4796 48.3335C98.6665 47.7029 97.7039 47.2549 96.5921 46.9893C95.4968 46.7072 94.3268 46.5662 93.0822 46.5662Z" fill="white"/>
<path d="M62.7381 46.5661C61.1948 46.5661 59.8257 46.6989 58.6308 46.9644C57.436 47.2299 56.4154 47.6614 55.569 48.2588C54.7393 48.8397 54.092 49.5947 53.6274 50.5241C53.1627 51.4534 52.8972 52.5902 52.8308 53.9344H71.5999V52.5902C71.5999 51.7604 71.4422 50.9804 71.1269 50.2503C70.8282 49.5201 70.3304 48.8812 69.6334 48.3335C68.9364 47.7859 68.0236 47.3544 66.8952 47.0391C65.7667 46.7238 64.381 46.5661 62.7381 46.5661ZM61.4437 63.4434C63.0202 63.4434 64.3976 63.3438 65.5759 63.1446C66.7541 62.9455 67.7664 62.7049 68.6128 62.4228C69.4591 62.1406 70.1478 61.8502 70.6789 61.5515C71.2265 61.2528 71.6497 61.0039 71.9484 60.8047C72.048 60.7715 72.1143 60.755 72.1475 60.755C72.3301 60.755 72.496 60.8462 72.6454 61.0288C72.8113 61.1947 72.8943 61.3773 72.8943 61.5764C72.8943 61.759 72.8113 61.9083 72.6454 62.0245C72.496 62.1738 72.1724 62.4062 71.6746 62.7215C71.1933 63.0368 70.4963 63.3604 69.5836 63.6923C68.6708 64.0076 67.5424 64.2897 66.1982 64.5386C64.854 64.7876 63.2608 64.912 61.4188 64.912C59.4938 64.912 57.8591 64.6714 56.5149 64.1901C55.1707 63.7089 54.0755 63.0368 53.2291 62.1738C52.3828 61.3109 51.7687 60.2737 51.387 59.0623C51.0054 57.8508 50.8145 56.5232 50.8145 55.0794C50.8145 53.1544 51.1215 51.553 51.7355 50.2751C52.3496 48.9973 53.1876 47.9767 54.2497 47.2133C55.3284 46.4334 56.5896 45.8857 58.0334 45.5704C59.4938 45.2551 61.062 45.0975 62.7381 45.0975C66.1899 45.0975 68.7704 45.7613 70.4797 47.0889C72.2056 48.3999 73.0686 50.2834 73.0686 52.7395C73.0686 52.9719 73.052 53.2291 73.0188 53.5112C72.9856 53.7933 72.9358 54.0671 72.8694 54.3326C72.8196 54.5816 72.7532 54.7973 72.6703 54.9799C72.6039 55.1458 72.5375 55.2288 72.4711 55.2288H65.1527L52.8059 54.9799C52.8391 56.5232 53.0383 57.8342 53.4034 58.9129C53.785 59.975 54.3327 60.8462 55.0463 61.5266C55.7765 62.1904 56.6726 62.68 57.7347 62.9953C58.7968 63.294 60.0331 63.4434 61.4437 63.4434Z" fill="white"/>
<path d="M313.607 73.1598L282.094 47.8996C358.077 52.2123 278.826 4.05368 271.239 2.00001" stroke="#EDF7FF" stroke-width="4" stroke-linecap="round"/>
</svg>
